<svg width="42" height="42" viewBox="0 0 42 42" xmlns="http://www.w3.org/2000/svg">

<defs>
  <linearGradient id="gold" x1="0" y1="0" x2="100%" y2="100%">
    <stop offset="0%" stop-color="#FFDB6E"/>
    <stop offset="100%" stop-color="#FFBC5E"/>
  </linearGradient>
</defs>

<g stroke="url(#gold)" stroke-width="2" stroke-linecap="round" stroke-linejoin="round" fill="none">
  <!-- Rocket body -->
  <path d="M21 6 C24 9 26 13 26 17 C26 19 25 21 24 23 L18 23 C17 21 16 19 16 17 C16 13 18 9 21 6 Z"/>
  <!-- Nose cone tip -->
  <path d="M21 6 L21 3"/>
  <!-- Fins -->
  <path d="M18 23 L15 27 L18 27"/>
  <path d="M24 23 L27 27 L24 27"/>
  <!-- Exhaust trail -->
  <path d="M18 27 C19 30 20 33 21 36 C22 33 23 30 24 27"/>
  <!-- Window -->
  <circle cx="21" cy="16.5" r="2.2"/>
  <!-- Stars -->
  <path d="M8 10 L9 11 L10.5 10.5 L9.5 12 L10.5 13.5 L9 13 L8 14 L8.5 12.3 L7 11.5 L8.8 11.3 Z"/>
  <path d="M33 10 L34 11 L35.5 10.5 L34.5 12 L35.5 13.5 L34 13 L33 14 L33.5 12.3 L32 11.5 L33.8 11.3 Z"/>
</g>
</svg>